<svg xmlns="http://www.w3.org/2000/svg" viewBox="0 0 651 195" width="100%" height="100%" preserveAspectRatio="xMidYMid meet">
  <g fill-rule="evenodd" stroke="none">
    <path d="M 221 2 L 217 3 L 218 113 L 216 137 L 217 145 L 217 162 L 216 164 L 218 166 L 218 169 L 216 173 L 217 192 L 225 194 L 246 193 L 251 190 L 252 188 L 253 130 L 252 119 L 254 7 L 252 2 Z" fill="currentColor" />
    <path d="M 217 188 Z" fill="currentColor" />
    <path d="M 243 186 Z" fill="currentColor" />
    <path d="M 225 185 Z" fill="currentColor" />
    <path d="M 233 182 Z" fill="currentColor" />
    <path d="M 218 175 Z" fill="currentColor" />
    <path d="M 249 170 Z" fill="currentColor" />
    <path d="M 242 166 Z" fill="currentColor" />
    <path d="M 243 164 Z" fill="currentColor" />
    <path d="M 233 164 Z" fill="currentColor" />
    <path d="M 241 161 Z" fill="currentColor" />
    <path d="M 217 158 Z" fill="currentColor" />
    <path d="M 246 155 Z" fill="currentColor" />
    <path d="M 248 123 Z" fill="currentColor" />
    <path d="M 232 120 Z" fill="currentColor" />
    <path d="M 225 100 Z" fill="currentColor" />
    <path d="M 223 95 Z" fill="currentColor" />
    <path d="M 230 83 Z" fill="currentColor" />
    <path d="M 233 69 Z" fill="currentColor" />
    <path d="M 247 51 Z" fill="currentColor" />
    <path d="M 225 32 Z" fill="currentColor" />
    <path d="M 249 31 Z" fill="currentColor" />
    <path d="M 241 30 Z" fill="currentColor" />
    <path d="M 219 26 Z" fill="currentColor" />
    <path d="M 230 18 Z" fill="currentColor" />
    <path d="M 463 1 L 461 3 L 462 30 L 488 30 L 491 33 L 489 80 L 490 83 L 489 86 L 490 89 L 489 92 L 490 95 L 489 111 L 490 113 L 490 172 L 489 174 L 490 178 L 489 184 L 490 193 L 492 194 L 522 194 L 524 193 L 525 191 L 524 135 L 524 51 L 526 31 L 544 30 L 550 31 L 553 30 L 552 13 L 554 9 L 554 3 L 552 2 L 532 3 L 515 1 L 502 2 Z" fill="currentColor" />
    <path d="M 495 186 Z" fill="currentColor" />
    <path d="M 505 174 Z" fill="currentColor" />
    <path d="M 512 168 Z" fill="currentColor" />
    <path d="M 515 159 L 518 159 Z" fill="currentColor" />
    <path d="M 522 159 Z" fill="currentColor" />
    <path d="M 493 157 Z" fill="currentColor" />
    <path d="M 515 147 Z" fill="currentColor" />
    <path d="M 491 124 Z" fill="currentColor" />
    <path d="M 496 123 Z" fill="currentColor" />
    <path d="M 510 112 Z" fill="currentColor" />
    <path d="M 503 107 L 503 110 Z" fill="currentColor" />
    <path d="M 518 106 Z" fill="currentColor" />
    <path d="M 514 104 Z" fill="currentColor" />
    <path d="M 507 89 Z" fill="currentColor" />
    <path d="M 494 82 Z" fill="currentColor" />
    <path d="M 517 81 Z" fill="currentColor" />
    <path d="M 495 65 Z" fill="currentColor" />
    <path d="M 508 63 L 511 63 Z" fill="currentColor" />
    <path d="M 504 56 Z" fill="currentColor" />
    <path d="M 519 39 Z" fill="currentColor" />
    <path d="M 493 37 Z" fill="currentColor" />
    <path d="M 514 35 Z" fill="currentColor" />
    <path d="M 516 33 Z" fill="currentColor" />
    <path d="M 491 33 Z" fill="currentColor" />
    <path d="M 525 31 Z" fill="currentColor" />
    <path d="M 484 26 L 484 29 Z" fill="currentColor" />
    <path d="M 544 23 Z" fill="currentColor" />
    <path d="M 485 21 L 486 19 L 488 21 Z" fill="currentColor" />
    <path d="M 464 17 L 464 20 Z" fill="currentColor" />
    <path d="M 546 18 Z" fill="currentColor" />
    <path d="M 485 17 Z" fill="currentColor" />
    <path d="M 549 15 Z" fill="currentColor" />
    <path d="M 486 8 L 489 12 L 490 17 L 488 18 L 486 16 L 485 12 Z" fill="currentColor" />
    <path d="M 500 7 Z" fill="currentColor" />
    <path d="M 481 3 Z" fill="currentColor" />
    <path d="M 366 1 L 364 2 L 364 11 L 365 18 L 367 17 L 367 20 L 365 20 L 365 30 L 391 30 L 393 32 L 392 42 L 392 51 L 393 55 L 393 135 L 392 187 L 393 193 L 395 194 L 425 194 L 427 193 L 428 191 L 427 173 L 427 106 L 429 31 L 446 30 L 452 31 L 456 30 L 457 3 L 455 2 L 418 1 L 404 2 Z" fill="currentColor" />
    <path d="M 421 190 Z" fill="currentColor" />
    <path d="M 409 187 L 412 187 Z" fill="currentColor" />
    <path d="M 418 184 Z" fill="currentColor" />
    <path d="M 426 179 L 426 182 Z" fill="currentColor" />
    <path d="M 411 180 Z" fill="currentColor" />
    <path d="M 423 171 Z" fill="currentColor" />
    <path d="M 404 171 Z" fill="currentColor" />
    <path d="M 418 168 L 418 171 Z" fill="currentColor" />
    <path d="M 410 169 L 413 169 Z" fill="currentColor" />
    <path d="M 415 165 Z" fill="currentColor" />
    <path d="M 419 137 Z" fill="currentColor" />
    <path d="M 421 128 Z" fill="currentColor" />
    <path d="M 403 118 Z" fill="currentColor" />
    <path d="M 420 117 Z" fill="currentColor" />
    <path d="M 419 110 Z" fill="currentColor" />
    <path d="M 421 107 L 421 110 Z" fill="currentColor" />
    <path d="M 419 107 Z" fill="currentColor" />
    <path d="M 403 88 Z" fill="currentColor" />
    <path d="M 412 80 Z" fill="currentColor" />
    <path d="M 394 79 Z" fill="currentColor" />
    <path d="M 393 75 Z" fill="currentColor" />
    <path d="M 421 54 Z" fill="currentColor" />
    <path d="M 435 31 Z" fill="currentColor" />
    <path d="M 428 31 Z" fill="currentColor" />
    <path d="M 428 23 Z" fill="currentColor" />
    <path d="M 374 19 L 374 28 L 372 26 L 370 21 Z" fill="currentColor" />
    <path d="M 381 19 Z" fill="currentColor" />
    <path d="M 372 19 Z" fill="currentColor" />
    <path d="M 399 12 L 402 12 Z" fill="currentColor" />
    <path d="M 373 7 L 375 11 L 375 16 L 373 18 L 371 15 L 370 11 Z" fill="currentColor" />
    <path d="M 413 4 Z" fill="currentColor" />
    <path d="M 262 3 L 262 33 L 261 52 L 262 189 L 261 193 L 263 194 L 270 193 L 322 194 L 323 192 L 324 194 L 337 194 L 357 192 L 358 189 L 357 178 L 358 166 L 357 163 L 308 164 L 301 163 L 299 161 L 298 154 L 299 110 L 301 108 L 315 107 L 341 108 L 343 107 L 342 77 L 335 76 L 302 77 L 299 74 L 299 35 L 302 32 L 357 30 L 356 1 L 293 2 L 289 1 L 280 1 Z" fill="currentColor" />
    <path d="M 328 194 Z" fill="currentColor" />
    <path d="M 318 194 Z" fill="currentColor" />
    <path d="M 330 191 Z" fill="currentColor" />
    <path d="M 314 189 L 314 192 Z" fill="currentColor" />
    <path d="M 312 191 Z" fill="currentColor" />
    <path d="M 320 189 Z" fill="currentColor" />
    <path d="M 314 189 Z" fill="currentColor" />
    <path d="M 326 188 Z" fill="currentColor" />
    <path d="M 273 188 Z" fill="currentColor" />
    <path d="M 310 186 Z" fill="currentColor" />
    <path d="M 286 185 Z" fill="currentColor" />
    <path d="M 316 184 Z" fill="currentColor" />
    <path d="M 294 184 Z" fill="currentColor" />
    <path d="M 306 182 Z" fill="currentColor" />
    <path d="M 335 177 Z" fill="currentColor" />
    <path d="M 305 177 Z" fill="currentColor" />
    <path d="M 262 177 Z" fill="currentColor" />
    <path d="M 336 176 Z" fill="currentColor" />
    <path d="M 297 176 Z" fill="currentColor" />
    <path d="M 326 175 Z" fill="currentColor" />
    <path d="M 320 174 Z" fill="currentColor" />
    <path d="M 318 172 Z" fill="currentColor" />
    <path d="M 328 170 Z" fill="currentColor" />
    <path d="M 342 167 Z" fill="currentColor" />
    <path d="M 324 167 Z" fill="currentColor" />
    <path d="M 281 167 Z" fill="currentColor" />
    <path d="M 329 166 Z" fill="currentColor" />
    <path d="M 283 166 Z" fill="currentColor" />
    <path d="M 296 164 Z" fill="currentColor" />
    <path d="M 297 161 Z" fill="currentColor" />
    <path d="M 273 146 Z" fill="currentColor" />
    <path d="M 279 142 Z" fill="currentColor" />
    <path d="M 276 128 Z" fill="currentColor" />
    <path d="M 295 126 L 293 128 Z" fill="currentColor" />
    <path d="M 298 113 Z" fill="currentColor" />
    <path d="M 339 107 Z" fill="currentColor" />
    <path d="M 287 106 Z" fill="currentColor" />
    <path d="M 284 106 Z" fill="currentColor" />
    <path d="M 276 100 Z" fill="currentColor" />
    <path d="M 265 77 Z" fill="currentColor" />
    <path d="M 267 70 Z" fill="currentColor" />
    <path d="M 294 63 Z" fill="currentColor" />
    <path d="M 275 41 Z" fill="currentColor" />
    <path d="M 323 31 Z" fill="currentColor" />
    <path d="M 311 31 Z" fill="currentColor" />
    <path d="M 293 19 Z" fill="currentColor" />
    <path d="M 309 11 Z" fill="currentColor" />
    <path d="M 620 1 L 607 1 L 600 0 L 587 1 L 576 4 L 569 8 L 566 11 L 565 15 L 563 17 L 562 21 L 560 22 L 557 27 L 559 44 L 558 47 L 560 49 L 558 51 L 558 65 L 556 65 L 553 67 L 552 69 L 552 80 L 554 82 L 556 86 L 557 91 L 556 103 L 552 108 L 553 113 L 552 147 L 555 163 L 558 169 L 558 171 L 560 173 L 560 175 L 567 184 L 571 187 L 580 191 L 586 192 L 612 192 L 623 190 L 631 186 L 639 178 L 642 173 L 642 171 L 644 169 L 647 158 L 649 138 L 650 88 L 650 42 L 649 34 L 646 24 L 643 18 L 641 16 L 640 13 L 633 6 L 627 3 Z" fill="currentColor" />
    <path d="M 582 190 Z" fill="currentColor" />
    <path d="M 577 189 Z" fill="currentColor" />
    <path d="M 630 186 Z" fill="currentColor" />
    <path d="M 576 177 Z" fill="currentColor" />
    <path d="M 632 175 Z" fill="currentColor" />
    <path d="M 636 171 L 634 173 Z" fill="currentColor" />
    <path d="M 618 167 Z" fill="currentColor" />
    <path d="M 574 166 Z" fill="currentColor" />
    <path d="M 569 166 Z" fill="currentColor" />
    <path d="M 596 164 Z" fill="currentColor" />
    <path d="M 645 163 Z" fill="currentColor" />
    <path d="M 635 162 L 638 162 Z" fill="currentColor" />
    <path d="M 631 162 L 634 162 Z" fill="currentColor" />
    <path d="M 629 163 Z" fill="currentColor" />
    <path d="M 577 163 Z" fill="currentColor" />
    <path d="M 557 159 L 557 162 Z" fill="currentColor" />
    <path d="M 577 155 Z" fill="currentColor" />
    <path d="M 582 154 Z" fill="currentColor" />
    <path d="M 626 153 Z" fill="currentColor" />
    <path d="M 577 150 Z" fill="currentColor" />
    <path d="M 555 150 Z" fill="currentColor" />
    <path d="M 577 141 Z" fill="currentColor" />
    <path d="M 566 139 L 564 141 Z" fill="currentColor" />
    <path d="M 623 140 Z" fill="currentColor" />
    <path d="M 567 140 Z" fill="currentColor" />
    <path d="M 639 138 L 637 140 Z" fill="currentColor" />
    <path d="M 554 139 Z" fill="currentColor" />
    <path d="M 627 137 Z" fill="currentColor" />
    <path d="M 588 136 Z" fill="currentColor" />
    <path d="M 624 135 Z" fill="currentColor" />
    <path d="M 577 133 L 575 136 Z" fill="currentColor" />
    <path d="M 569 128 Z" fill="currentColor" />
    <path d="M 630 125 Z" fill="currentColor" />
    <path d="M 625 125 Z" fill="currentColor" />
    <path d="M 566 124 L 569 124 Z" fill="currentColor" />
    <path d="M 564 125 Z" fill="currentColor" />
    <path d="M 565 124 Z" fill="currentColor" />
    <path d="M 589 122 Z" fill="currentColor" />
    <path d="M 622 121 Z" fill="currentColor" />
    <path d="M 630 120 Z" fill="currentColor" />
    <path d="M 644 119 L 645 117 L 647 119 Z" fill="currentColor" />
    <path d="M 574 119 L 575 117 L 577 119 Z" fill="currentColor" />
    <path d="M 557 117 L 558 119 L 560 120 L 561 126 L 559 128 L 556 128 L 554 126 L 554 123 Z" fill="currentColor" />
    <path d="M 555 119 Z" fill="currentColor" />
    <path d="M 572 118 Z" fill="currentColor" />
    <path d="M 556 117 Z" fill="currentColor" />
    <path d="M 576 116 Z" fill="currentColor" />
    <path d="M 622 115 Z" fill="currentColor" />
    <path d="M 647 111 L 645 113 Z" fill="currentColor" />
    <path d="M 558 111 Z" fill="currentColor" />
    <path d="M 623 101 L 623 105 Z" fill="currentColor" />
    <path d="M 584 103 Z" fill="currentColor" />
    <path d="M 577 103 Z" fill="currentColor" />
    <path d="M 645 100 Z" fill="currentColor" />
    <path d="M 620 98 L 623 100 L 621 102 L 619 100 Z" fill="currentColor" />
    <path d="M 576 100 Z" fill="currentColor" />
    <path d="M 639 98 L 640 96 L 642 98 Z" fill="currentColor" />
    <path d="M 625 94 L 625 98 L 623 96 Z" fill="currentColor" />
    <path d="M 557 96 Z" fill="currentColor" />
    <path d="M 586 94 Z" fill="currentColor" />
    <path d="M 566 94 Z" fill="currentColor" />
    <path d="M 647 93 Z" fill="currentColor" />
    <path d="M 560 93 Z" fill="currentColor" />
    <path d="M 586 90 Z" fill="currentColor" />
    <path d="M 640 85 L 643 88 L 643 91 L 641 93 L 639 92 L 638 90 L 640 89 Z" fill="currentColor" />
    <path d="M 588 86 L 591 86 Z" fill="currentColor" />
    <path d="M 571 86 Z" fill="currentColor" />
    <path d="M 638 85 Z" fill="currentColor" />
    <path d="M 616 85 Z" fill="currentColor" />
    <path d="M 648 84 Z" fill="currentColor" />
    <path d="M 576 84 Z" fill="currentColor" />
    <path d="M 556 83 Z" fill="currentColor" />
    <path d="M 555 82 Z" fill="currentColor" />
    <path d="M 613 72 Z" fill="currentColor" />
    <path d="M 588 72 Z" fill="currentColor" />
    <path d="M 618 70 L 621 70 Z" fill="currentColor" />
    <path d="M 637 66 L 635 68 Z" fill="currentColor" />
    <path d="M 636 65 L 637 63 L 640 64 Z" fill="currentColor" />
    <path d="M 633 65 Z" fill="currentColor" />
    <path d="M 623 62 Z" fill="currentColor" />
    <path d="M 618 62 Z" fill="currentColor" />
    <path d="M 616 62 Z" fill="currentColor" />
    <path d="M 577 61 Z" fill="currentColor" />
    <path d="M 575 61 Z" fill="currentColor" />
    <path d="M 586 60 Z" fill="currentColor" />
    <path d="M 570 60 Z" fill="currentColor" />
    <path d="M 629 59 Z" fill="currentColor" />
    <path d="M 564 58 Z" fill="currentColor" />
    <path d="M 613 57 Z" fill="currentColor" />
    <path d="M 639 53 L 642 57 L 640 59 L 638 58 L 636 55 Z" fill="currentColor" />
    <path d="M 584 54 Z" fill="currentColor" />
    <path d="M 574 53 Z" fill="currentColor" />
    <path d="M 645 52 Z" fill="currentColor" />
    <path d="M 589 52 Z" fill="currentColor" />
    <path d="M 587 49 Z" fill="currentColor" />
    <path d="M 585 49 Z" fill="currentColor" />
    <path d="M 638 48 Z" fill="currentColor" />
    <path d="M 589 45 Z" fill="currentColor" />
    <path d="M 585 44 Z" fill="currentColor" />
    <path d="M 586 41 Z" fill="currentColor" />
    <path d="M 631 39 Z" fill="currentColor" />
    <path d="M 600 32 L 602 32 L 606 34 L 611 39 L 612 76 L 612 142 L 610 154 L 609 156 L 603 161 L 599 161 L 595 159 L 590 154 L 589 146 L 590 138 L 590 101 L 588 99 L 590 98 L 591 87 L 590 85 L 591 46 L 593 37 L 597 33 Z" fill="currentColor" />
    <path d="M 617 32 Z" fill="currentColor" />
    <path d="M 608 32 Z" fill="currentColor" />
    <path d="M 646 31 Z" fill="currentColor" />
    <path d="M 613 31 Z" fill="currentColor" />
    <path d="M 598 31 Z" fill="currentColor" />
    <path d="M 578 30 Z" fill="currentColor" />
    <path d="M 568 29 L 571 29 Z" fill="currentColor" />
    <path d="M 633 25 L 634 23 L 637 24 Z" fill="currentColor" />
    <path d="M 578 25 Z" fill="currentColor" />
    <path d="M 615 23 Z" fill="currentColor" />
    <path d="M 577 22 Z" fill="currentColor" />
    <path d="M 629 20 Z" fill="currentColor" />
    <path d="M 627 19 Z" fill="currentColor" />
    <path d="M 626 18 Z" fill="currentColor" />
    <path d="M 601 18 Z" fill="currentColor" />
    <path d="M 624 17 Z" fill="currentColor" />
    <path d="M 621 15 Z" fill="currentColor" />
    <path d="M 619 14 Z" fill="currentColor" />
    <path d="M 617 13 Z" fill="currentColor" />
    <path d="M 586 12 Z" fill="currentColor" />
    <path d="M 630 11 Z" fill="currentColor" />
    <path d="M 614 11 Z" fill="currentColor" />
    <path d="M 608 9 Z" fill="currentColor" />
    <path d="M 600 8 Z" fill="currentColor" />
    <path d="M 615 5 Z" fill="currentColor" />
    <path d="M 110 1 L 108 3 L 107 8 L 106 108 L 107 122 L 106 126 L 106 145 L 108 162 L 106 163 L 106 173 L 107 177 L 106 191 L 108 193 L 140 193 L 142 192 L 142 130 L 144 109 L 153 109 L 159 111 L 164 116 L 165 140 L 164 175 L 166 190 L 168 193 L 208 192 L 208 188 L 206 184 L 203 165 L 204 134 L 202 124 L 203 118 L 200 106 L 197 100 L 194 97 L 186 93 L 185 91 L 187 89 L 191 87 L 199 79 L 202 74 L 202 72 L 204 69 L 206 63 L 207 48 L 206 32 L 204 23 L 201 17 L 197 11 L 191 6 L 184 3 L 175 1 L 163 0 L 152 1 L 131 1 L 114 0 Z" fill="currentColor" />
    <path d="M 177 191 L 175 193 Z" fill="currentColor" />
    <path d="M 112 192 Z" fill="currentColor" />
    <path d="M 172 191 Z" fill="currentColor" />
    <path d="M 173 189 Z" fill="currentColor" />
    <path d="M 200 186 Z" fill="currentColor" />
    <path d="M 198 184 Z" fill="currentColor" />
    <path d="M 137 180 Z" fill="currentColor" />
    <path d="M 178 178 Z" fill="currentColor" />
    <path d="M 127 178 Z" fill="currentColor" />
    <path d="M 111 177 Z" fill="currentColor" />
    <path d="M 120 176 Z" fill="currentColor" />
    <path d="M 121 174 Z" fill="currentColor" />
    <path d="M 141 165 Z" fill="currentColor" />
    <path d="M 201 164 Z" fill="currentColor" />
    <path d="M 118 164 Z" fill="currentColor" />
    <path d="M 127 162 Z" fill="currentColor" />
    <path d="M 141 158 Z" fill="currentColor" />
    <path d="M 131 157 Z" fill="currentColor" />
    <path d="M 141 156 Z" fill="currentColor" />
    <path d="M 126 156 Z" fill="currentColor" />
    <path d="M 180 152 Z" fill="currentColor" />
    <path d="M 113 145 Z" fill="currentColor" />
    <path d="M 169 131 Z" fill="currentColor" />
    <path d="M 132 124 L 135 124 Z" fill="currentColor" />
    <path d="M 133 99 Z" fill="currentColor" />
    <path d="M 151 86 Z" fill="currentColor" />
    <path d="M 169 79 L 169 82 Z" fill="currentColor" />
    <path d="M 192 80 Z" fill="currentColor" />
    <path d="M 203 69 Z" fill="currentColor" />
    <path d="M 143 43 Z" fill="currentColor" />
    <path d="M 120 37 Z" fill="currentColor" />
    <path d="M 146 31 L 155 31 L 159 32 L 165 37 L 167 51 L 166 67 L 165 71 L 159 78 L 146 79 L 144 77 L 145 47 L 144 43 Z" fill="currentColor" />
    <path d="M 141 28 L 141 31 Z" fill="currentColor" />
    <path d="M 148 28 Z" fill="currentColor" />
    <path d="M 195 27 Z" fill="currentColor" />
    <path d="M 167 3 Z" fill="currentColor" />
    <path d="M 74 1 L 67 0 L 2 1 L 1 6 L 2 82 L 0 126 L 1 134 L 0 192 L 6 193 L 12 192 L 20 193 L 31 193 L 37 191 L 37 180 L 38 175 L 38 171 L 37 169 L 37 127 L 39 125 L 56 125 L 69 124 L 80 121 L 84 119 L 91 112 L 97 101 L 100 86 L 101 75 L 100 35 L 99 27 L 97 20 L 94 14 L 85 5 Z" fill="currentColor" />
    <path d="M 13 189 Z" fill="currentColor" />
    <path d="M 27 188 Z" fill="currentColor" />
    <path d="M 34 184 Z" fill="currentColor" />
    <path d="M 28 180 Z" fill="currentColor" />
    <path d="M 16 178 Z" fill="currentColor" />
    <path d="M 21 171 Z" fill="currentColor" />
    <path d="M 35 168 L 35 171 Z" fill="currentColor" />
    <path d="M 28 170 Z" fill="currentColor" />
    <path d="M 26 168 Z" fill="currentColor" />
    <path d="M 32 165 Z" fill="currentColor" />
    <path d="M 24 162 L 24 165 Z" fill="currentColor" />
    <path d="M 3 151 Z" fill="currentColor" />
    <path d="M 34 139 Z" fill="currentColor" />
    <path d="M 4 136 Z" fill="currentColor" />
    <path d="M 44 124 Z" fill="currentColor" />
    <path d="M 37 117 Z" fill="currentColor" />
    <path d="M 80 115 Z" fill="currentColor" />
    <path d="M 59 114 L 62 114 Z" fill="currentColor" />
    <path d="M 65 114 Z" fill="currentColor" />
    <path d="M 72 112 Z" fill="currentColor" />
    <path d="M 36 110 Z" fill="currentColor" />
    <path d="M 93 105 Z" fill="currentColor" />
    <path d="M 82 94 Z" fill="currentColor" />
    <path d="M 3 94 Z" fill="currentColor" />
    <path d="M 28 79 Z" fill="currentColor" />
    <path d="M 11 79 Z" fill="currentColor" />
    <path d="M 66 74 L 66 77 Z" fill="currentColor" />
    <path d="M 73 73 L 71 75 Z" fill="currentColor" />
    <path d="M 10 75 Z" fill="currentColor" />
    <path d="M 12 73 Z" fill="currentColor" />
    <path d="M 3 67 Z" fill="currentColor" />
    <path d="M 66 44 Z" fill="currentColor" />
    <path d="M 82 38 L 86 38 L 86 41 Z" fill="currentColor" />
    <path d="M 98 31 Z" fill="currentColor" />
    <path d="M 40 29 L 49 30 L 52 29 L 53 31 L 58 35 L 60 40 L 60 51 L 65 56 L 60 56 L 61 63 L 60 68 L 60 79 L 59 82 L 54 88 L 51 89 L 38 88 L 39 48 L 38 44 L 38 36 Z" fill="currentColor" />
    <path d="M 98 28 Z" fill="currentColor" />
    <path d="M 89 19 Z" fill="currentColor" />
    <path d="M 92 18 Z" fill="currentColor" />
    <path d="M 44 14 Z" fill="currentColor" />
    <path d="M 17 13 Z" fill="currentColor" />
    <path d="M 45 8 Z" fill="currentColor" />
    <path d="M 7 2 Z" fill="currentColor" />
  </g>
</svg>